<svg xmlns="http://www.w3.org/2000/svg" xmlns:xlink="http://www.w3.org/1999/xlink" height="17px" width="17px" version="1.1" x="0px" y="0px" viewBox="0 0 100 100" style="enable-background:new 0 0 100 100;" xml:space="preserve"><g><path d="M91.08,76.2c-9.92-12.43-24.66-19.62-40.52-19.79c-0.19,0-0.37-0.01-0.56-0.01h0h0c0,0,0,0,0,0c-0.19,0-0.37,0-0.56,0.01   c-15.86,0.17-30.6,7.35-40.52,19.79c-0.34,0.42-0.34,1.02,0,1.44c9.92,12.43,24.66,19.62,40.52,19.79c0.19,0,0.37,0.01,0.56,0.01   c0,0,0,0,0,0h0h0c0.19,0,0.37,0,0.56-0.01c15.86-0.17,30.6-7.35,40.52-19.79C91.41,77.22,91.41,76.62,91.08,76.2z M50,95.12   C50,95.12,50,95.12,50,95.12c-0.16,0-0.33-0.01-0.49-0.01c-9.81-0.26-17.71-8.32-17.71-18.2c0-9.87,7.9-17.94,17.71-18.2   c0.16,0,0.32-0.01,0.49-0.01c0,0,0,0,0,0c0.16,0,0.33,0.01,0.49,0.01c9.81,0.26,17.71,8.32,17.71,18.2c0,9.87-7.9,17.94-17.71,18.2   C50.33,95.12,50.16,95.12,50,95.12z M11.32,76.92c7.04-8.5,16.48-14.33,26.96-16.82c-5.31,3.71-8.79,9.87-8.79,16.82   c0,6.96,3.48,13.11,8.79,16.82C27.8,91.25,18.35,85.42,11.32,76.92z M61.73,93.74c5.31-3.71,8.79-9.87,8.79-16.82   c0-6.96-3.48-13.11-8.79-16.82c10.48,2.5,19.92,8.32,26.96,16.82C81.65,85.42,72.2,91.25,61.73,93.74z M50,67.66   c-5.11,0-9.26,4.15-9.26,9.26c0,5.11,4.15,9.26,9.26,9.26s9.26-4.15,9.26-9.26C59.26,71.81,55.11,67.66,50,67.66z M50,83.87   c-3.83,0-6.95-3.12-6.95-6.95c0-3.83,3.12-6.95,6.95-6.95s6.95,3.12,6.95,6.95C56.95,80.75,53.83,83.87,50,83.87z M14.6,37.36   c-0.64,0-1.16,0.52-1.16,1.16v14.46c0,0.64,0.52,1.16,1.16,1.16h12.6c0.64,0,1.16-0.52,1.16-1.16V38.52c0-0.64-0.52-1.16-1.16-1.16   H14.6z M26.04,51.82H15.75V39.67h10.29V51.82z M33.65,26.58c-0.64,0-1.16,0.52-1.16,1.16v25.24c0,0.64,0.52,1.16,1.16,1.16h12.6   c0.64,0,1.16-0.52,1.16-1.16V27.74c0-0.64-0.52-1.16-1.16-1.16H33.65z M45.1,51.82H34.81V28.89H45.1V51.82z M52.71,33.13   c-0.64,0-1.16,0.52-1.16,1.16v18.7c0,0.64,0.52,1.16,1.16,1.16h12.6c0.64,0,1.16-0.52,1.16-1.16v-18.7c0-0.64-0.52-1.16-1.16-1.16   H52.71z M64.15,51.82H53.87V35.44h10.29V51.82z M84.36,22.3h-12.6c-0.64,0-1.16,0.52-1.16,1.16v29.52c0,0.64,0.52,1.16,1.16,1.16   h12.6c0.64,0,1.16-0.52,1.16-1.16V23.46C85.52,22.82,85,22.3,84.36,22.3z M83.21,51.82H72.92v-27.2h10.29V51.82z M13.54,32.62   c-0.43-0.47-0.4-1.2,0.07-1.63L37.88,8.74c0.43-0.4,1.09-0.41,1.54-0.02l19.1,16.4L81.2,4.88h-5.56c-0.64,0-1.16-0.52-1.16-1.16   S75,2.56,75.64,2.56h8.59c0.64,0,1.16,0.52,1.16,1.16v8.59c0,0.64-0.52,1.16-1.16,1.16s-1.16-0.52-1.16-1.16V6.3L59.3,27.52   c-0.43,0.39-1.08,0.39-1.52,0.01L38.69,11.14L15.18,32.69c-0.22,0.2-0.5,0.3-0.78,0.3C14.08,33,13.77,32.87,13.54,32.62z"/></g></svg>
