<svg id="logosandtypes_com" xmlns="http://www.w3.org/2000/svg" width="17" height="17" viewBox="0 0 134 130"><style>.st1{fill:#003e74}</style><path d="M0 0h150v150H0V0z" fill="none" id="Layer_3"/><g id="university_of_south_australia"><path class="st1" d="M70.2 88.5c0 2.6 1.8 4.5 4.4 4.5 2.4 0 4.2-1.9 4.2-4.5V53.9l-8.6 5v29.6z"/><path class="st1" d="M26.2 18.7v69.9c0 26.7 21.7 48.1 48.4 48.1 26.6 0 48.1-21.6 48.1-48.1V18.7H26.2zm78.9 20.1v49.7c0 16.9-13.8 30.7-30.4 30.7-16.9 0-30.7-13.7-30.7-30.7V64l8.8-5 8.8 5V54l8.6-5 8.6 5V43.9l8.7-5 8.7 5-8.8 5v39.7c0 7.4-5.6 13.2-12.7 13.2-7.4 0-13-5.8-13-13.2V64l-9.1 5v19.6c0 12.1 9.8 22 22 22s22-9.8 22-22V33.8l8.6-5 8.7 5-8.8 5z"/></g></svg>