<?xml version="1.0" standalone="no"?>
<!DOCTYPE svg PUBLIC "-//W3C//DTD SVG 20010904//EN"
 "http://www.w3.org/TR/2001/REC-SVG-20010904/DTD/svg10.dtd">
<svg version="1.0" xmlns="http://www.w3.org/2000/svg"
 width="21.2389pt" height="8.00pt" viewBox="0 0 300.000000 113.000000"
 preserveAspectRatio="xMidYMid meet">
<metadata>
Created by potrace 1.10, written by Peter Selinger 2001-2011
</metadata>
<g transform="translate(0.000000,113.000000) scale(0.100000,-0.100000)"
fill="#000000" stroke="none">
<path d="M260 804 c-167 -168 -260 -269 -251 -272 8 -3 115 97 270 252 l257
257 94 -3 95 -3 -228 -228 c-125 -126 -227 -236 -227 -244 0 -9 2 -14 5 -12 2
2 121 120 263 262 l259 257 -136 0 -137 0 -264 -266z"/>
<path d="M898 939 c-2 -72 0 -133 3 -134 3 -2 61 52 130 121 68 68 126 124
129 124 3 0 4 -55 2 -122 l-4 -123 -129 -130 -129 -130 0 -138 0 -137 270 0
270 0 0 135 c0 74 -4 135 -8 135 -5 0 -66 -57 -135 -127 l-127 -128 0 125 0
126 135 139 135 139 0 128 0 128 -269 0 -270 0 -3 -131z m192 94 c0 -10 -142
-153 -152 -153 -5 0 -8 36 -8 80 l0 80 80 0 c44 0 80 -3 80 -7z m314 -9 c3 -9
6 -56 5 -105 -1 -88 -1 -90 -39 -137 -21 -26 -79 -87 -129 -137 l-91 -90 -1
-70 c-2 -77 -5 -153 -7 -173 -2 -10 -27 -12 -104 -10 l-103 3 -3 114 -3 113
115 117 c64 64 122 125 130 136 12 15 15 49 16 138 l0 117 104 0 c86 0 105 -3
110 -16z m5 -624 c0 -25 -3 -57 -6 -72 -5 -28 -5 -28 -91 -28 l-87 0 85 85
c91 91 100 93 99 15z"/>
<path d="M330 540 c-108 -10 -28 -21 192 -26 123 -3 229 -7 236 -9 15 -5 18
-400 3 -410 -17 -10 -175 -13 -193 -3 -15 7 -18 24 -18 111 -1 152 20 142
-278 143 -136 1 -253 -1 -259 -4 -46 -16 18 -22 252 -22 l265 0 -3 -132 -2
-133 135 0 135 0 0 245 0 245 -205 0 c-113 0 -230 -2 -260 -5z"/>
<path d="M1680 421 c0 -72 0 -134 -1 -138 0 -5 7 -9 16 -11 14 -3 15 13 13
134 -2 99 -6 139 -15 142 -10 3 -13 -27 -13 -127z"/>
<path d="M1848 416 c-25 -41 -44 -77 -40 -80 12 -12 38 -5 50 14 16 27 49 25
72 -2 33 -40 42 -11 22 67 -24 98 -42 98 -104 1z m72 -11 c0 -6 -9 -11 -20
-11 -23 0 -23 1 -9 28 9 17 13 18 20 7 5 -8 9 -19 9 -24z"/>
<path d="M2005 468 c-2 -13 -6 -48 -7 -78 l-3 -55 40 4 c64 5 83 17 94 56 5
20 7 43 5 50 -9 22 -46 41 -86 44 -32 2 -38 -1 -43 -21z m89 -40 c13 -21 -17
-58 -47 -58 -15 0 -18 5 -13 23 3 12 6 30 6 40 0 23 38 20 54 -5z"/>
<path d="M2169 487 c-1 -1 -2 -18 -4 -37 -1 -19 -5 -54 -9 -77 l-8 -42 49 2
c35 1 48 6 48 17 0 9 -11 16 -27 18 -39 5 -37 32 2 32 20 0 30 5 30 15 0 9
-10 15 -26 15 -16 0 -24 5 -21 13 2 6 16 11 31 9 20 -2 26 2 26 16 0 16 -8 19
-45 20 -25 0 -45 -1 -46 -1z"/>
<path d="M2282 418 c-6 -40 -9 -75 -6 -79 5 -8 68 -4 84 6 5 3 10 1 10 -4 0
-19 29 -12 42 9 8 12 24 20 39 20 18 0 28 -6 32 -20 5 -20 31 -27 41 -11 3 5
-1 28 -8 52 -8 24 -17 57 -21 72 -9 43 -43 32 -74 -23 -41 -72 -52 -86 -57
-74 -3 6 -17 9 -31 6 -21 -4 -25 -2 -20 10 3 9 9 36 12 62 7 41 5 46 -12 46
-16 0 -21 -11 -31 -72z m190 -2 c2 -12 -3 -20 -14 -21 -21 -4 -22 -1 -7 27 12
22 16 21 21 -6z"/>
<path d="M2559 478 c0 -7 -2 -33 -5 -58 -3 -25 -6 -54 -7 -65 -1 -14 4 -20 18
-20 17 0 21 9 26 60 4 33 8 67 10 75 3 9 -5 16 -18 18 -14 2 -23 -2 -24 -10z"/>
<path d="M2636 473 c-2 -10 -8 -47 -11 -82 l-7 -63 31 6 c17 3 45 9 61 12 35
7 50 29 50 77 0 26 -6 39 -25 51 -34 22 -92 21 -99 -1z m82 -51 c4 -29 -14
-52 -40 -52 -16 0 -19 5 -14 23 3 12 6 30 6 40 0 28 44 18 48 -11z"/>
<path d="M2799 483 c0 -4 -2 -15 -3 -23 -2 -8 -6 -41 -10 -74 -6 -51 -4 -58
10 -52 8 3 31 6 51 6 27 0 34 4 31 18 -2 12 -11 16 -31 14 -19 -3 -27 1 -27
12 0 11 9 16 30 16 20 0 30 5 30 15 0 9 -10 15 -26 15 -16 0 -24 5 -22 12 3 7
18 12 34 13 19 0 29 5 29 15 0 11 -13 16 -47 18 -27 2 -48 -1 -49 -5z"/>
</g>
</svg>
